<svg viewBox="0 0 90 81" xmlns="http://www.w3.org/2000/svg">
  <g transform="translate(0 -1)" fill="#FFF" fill-rule="nonzero">
    <circle cx="29.7" cy="51.9" r="21.5"/>
    <path d="M88 42.7v-.1c3.4-14 1.4-30.8-3.4-38-1.9-2.9-4-3.6-5.3-3.6-3.2-.1-4.3 3-5.4 6.2-1.6 4.4-3.8 10.5-11.7 13.3-11.6 4-26.2 2.5-27.4 2.4h-.3c-1.6-.3-3.2-.4-4.8-.4-14.3 0-26.5 10.2-29 24.4-2.8 16 7.9 31.3 23.9 34.1 1.7.3 3.4.5 5.1.5 1.8 0 3.5-.2 5.2-.5 7.7-.6 14.7-2.1 20.9-4.3.1 0 .1 0 .2-.1 4.4-1.6 8.4-3.6 12-6 .2-.1.3-.2.5-.3 4.4-2.9 8.2-6.4 11.3-10.5.1-.1.1-.1.1-.2 2.4-3.2 4.4-6.6 5.9-10.4 1-2.2 1.7-4.3 2.2-6.5zM25.3 77C11.4 74.6 2.1 61.3 4.6 47.5c2.1-12.2 12.7-21.1 25.1-21.1 1.5 0 3 .1 4.4.4h.2C41 28 46.7 31.7 50.6 37.2c3.9 5.6 5.4 12.4 4.2 19.1C53 66.9 44.8 75 34.6 76.9h-.1c-.1 0-.3 0-.4.1-1.4.3-2.9.4-4.3.4-1.5 0-3-.1-4.5-.4zM82 48.4v-4c-.6-9.8-6-16.3-6.3-16.6-.7-.8-1.9-.9-2.8-.2-.8.7-.9 1.9-.2 2.8 0 .1 4.8 5.9 5.4 14.3.4 6-1 11.3-1.4 12.8-1.2 1.5-2.5 3-3.9 4.4.8-2.5 1.6-5.5 2-9.1 1.2-10.9-5.1-21.2-5.3-21.6-.6-.9-1.8-1.2-2.7-.6-.9.6-1.2 1.8-.6 2.7.1.1 5.8 9.6 4.8 19.1-.9 8.3-4 13.6-4.9 14.9-1.4.9-2.9 1.8-4.5 2.7 1.8-3.1 3.7-7.2 4.9-12.3 3.1-14.3-5.6-24.5-5.9-24.9-.7-.8-1.9-.9-2.8-.2-.8.7-.9 1.9-.2 2.8.1.1 7.7 9.1 5.1 21.5-2 9.2-6.9 14.9-8.2 16.2-2 .7-4 1.3-6.1 1.8 5.4-4.3 9.2-10.5 10.4-17.8 2.1-12-3.4-23.6-13-29.8 5.4-.2 11.9-.9 17.8-3 9.7-3.4 12.3-10.8 14.1-15.7.5-1.3 1.2-3.4 1.7-3.6.6 0 1.4.7 2.1 1.9 1.5 2.2 2.7 6 3.5 10.5-1.4-1.7-2.6-2.6-2.7-2.6-.9-.6-2.1-.4-2.7.5-.6.9-.4 2.1.5 2.7 0 0 2 1.5 3.8 4.6 1.8 3.1 2.1 4.9 2.1 4.9 0 1.4 0 2.7-.1 4.1-2.1-5.2-5.4-8.8-5.6-8.9-.7-.8-2-.8-2.8-.1-.8.7-.8 2-.1 2.8 0 0 3.3 3.4 5 8.3 1.5 4 1.8 7.5 1.9 8.4-.5 2-1.1 3.9-1.9 5.7-.1.1-.3.3-.4.6z"/>
  </g>
</svg>