<svg xmlns="http://www.w3.org/2000/svg" width="30" height="30" viewBox="0 0 30 30">
  <path fill="#FFF" d="M18.505625,8.9434375 C17.7353125,10.0059375 16.741875,10.64875 15.5625,11.4721875 C14.383125,10.6540625 13.3896875,10.0059375 12.619375,8.9434375 L18.505625,8.9434375 Z M12.6140625,20.6309375 C11.7947721,21.3607832 11.1548537,22.2697583 10.7440625,23.2871875 L20.3703125,23.2871875 C19.9593526,22.2698501 19.3194595,21.3609111 18.5003125,20.6309375 L12.6140625,20.6309375 Z M17.783125,14.75 C20.34375,16.34375 24.519375,19.8021875 24.519375,23.78125 L24.519375,25.066875 C24.519375,27.3459375 22.9628125,27.489375 22.3465625,27.489375 L9.1025,27.489375 C8.5340625,27.489375 6.44625,27.3884375 6.44625,25.066875 L6.44625,23.78125 C6.44625,19.796875 10.69625,16.34375 13.2515625,14.75 C10.69625,13.15625 6.53125,9.6978125 6.53125,5.71875 L6.53125,4.4225 C6.53125,2.1434375 8.0878125,2 8.7040625,2 L21.9375,2 C22.5059375,2 24.59375,2.1009375 24.59375,4.4225 L24.59375,5.71875 C24.59375,9.703125 20.34375,13.15625 17.7884375,14.75 L17.783125,14.75 Z M17.02875,16.7634375 C17.02875,16.7634375 16.1415625,16.195 15.488125,15.7965625 C14.84,16.195 13.9475,16.7634375 13.9475,16.7634375 C11.939375,18.1340625 8.581875,20.944375 8.581875,23.791875 L8.581875,25.0775 C8.57444033,25.1765273 8.57444033,25.2759727 8.581875,25.375 L22.373125,25.375 C22.3805597,25.2759727 22.3805597,25.1765273 22.373125,25.0775 L22.373125,23.78125 C22.394375,20.944375 19.036875,18.1340625 17.02875,16.7634375 Z M22.46875,5.71875 L22.46875,4.4225 C22.4761847,4.32347268 22.4761847,4.22402732 22.46875,4.125 L8.65625,4.125 C8.64881533,4.22402732 8.64881533,4.32347268 8.65625,4.4225 L8.65625,5.71875 C8.65625,8.56625 12.01375,11.3765625 14.021875,12.7471875 C14.021875,12.7471875 14.9090625,13.315625 15.5625,13.7140625 C16.210625,13.315625 17.103125,12.7471875 17.103125,12.7471875 C19.11125,11.3659375 22.46875,8.555625 22.46875,5.71875 Z"/>
</svg>
