<?xml version="1.0" standalone="no"?>
<!DOCTYPE svg PUBLIC "-//W3C//DTD SVG 20010904//EN"
 "http://www.w3.org/TR/2001/REC-SVG-20010904/DTD/svg10.dtd">
<svg version="1.0" xmlns="http://www.w3.org/2000/svg"
 width="1040.000000pt" height="1040.000000pt" viewBox="0 0 1040.000000 1040.000000"
 preserveAspectRatio="xMidYMid meet">
<metadata>
Created by potrace 1.11, written by Peter Selinger 2001-2013
</metadata>
<g transform="translate(0.000000,1040.000000) scale(0.100000,-0.100000)"
fill="#000000" stroke="none">
<path d="M2217 10384 c-197 -36 -371 -129 -468 -252 -19 -24 -42 -53 -51 -64
-21 -25 -92 -172 -103 -213 -5 -16 -9 -34 -11 -40 -13 -44 -34 -141 -40 -181
-8 -58 -14 -905 -6 -918 3 -5 6 -34 8 -65 2 -31 5 -69 8 -86 12 -80 27 -165
31 -177 4 -12 14 -55 19 -88 4 -21 25 -94 49 -170 12 -36 22 -67 22 -70 2 -11
17 -56 25 -75 23 -55 40 -96 66 -160 35 -86 119 -257 151 -307 12 -21 23 -44
23 -53 0 -8 5 -15 10 -15 6 0 15 -11 19 -24 16 -41 197 -318 213 -324 4 -2 8
-10 8 -18 0 -8 5 -14 10 -14 6 0 10 -5 10 -10 0 -6 21 -38 48 -71 60 -77 175
-220 201 -251 11 -13 29 -34 41 -48 146 -171 500 -525 670 -670 14 -11 36 -31
50 -43 14 -12 52 -45 85 -72 33 -28 69 -58 80 -68 11 -11 39 -33 63 -50 23
-17 42 -34 42 -39 0 -4 5 -8 11 -8 6 0 26 -12 44 -27 57 -49 139 -112 185
-143 12 -8 28 -20 34 -25 6 -6 27 -22 46 -35 19 -13 37 -27 40 -30 3 -3 13 -9
22 -15 9 -5 90 -60 180 -121 90 -61 176 -117 190 -125 15 -8 24 -19 20 -24 -9
-12 -57 -45 -94 -64 -16 -8 -28 -18 -28 -23 0 -4 -5 -8 -11 -8 -12 0 -133 -80
-137 -92 -2 -4 -8 -8 -12 -8 -8 0 -157 -103 -249 -172 -20 -15 -42 -31 -50
-35 -8 -3 -22 -14 -32 -22 -37 -34 -53 -46 -70 -56 -9 -5 -34 -24 -55 -42 -22
-17 -77 -62 -124 -99 -47 -37 -89 -72 -95 -78 -5 -6 -38 -34 -72 -61 -35 -28
-63 -53 -63 -57 0 -5 -4 -8 -9 -8 -5 0 -25 -15 -43 -33 -19 -17 -74 -67 -121
-110 -171 -155 -477 -468 -558 -571 -12 -16 -32 -38 -43 -51 -25 -26 -51 -58
-156 -195 -44 -58 -84 -109 -88 -115 -7 -9 -152 -229 -197 -300 -11 -16 -30
-50 -43 -74 -13 -24 -32 -58 -42 -75 -30 -51 -110 -216 -142 -291 -16 -38 -35
-83 -43 -100 -7 -16 -16 -41 -20 -55 -3 -14 -10 -34 -15 -45 -11 -26 -22 -57
-26 -70 -1 -5 -19 -68 -38 -140 -20 -71 -38 -143 -41 -160 -2 -16 -7 -43 -10
-60 -3 -16 -8 -46 -11 -65 -4 -19 -8 -51 -9 -70 -2 -19 -6 -80 -10 -135 -9
-119 -10 -717 -1 -795 11 -94 14 -114 25 -155 5 -22 10 -41 11 -42 0 -2 2 -8
4 -15 15 -49 52 -147 65 -168 51 -87 91 -140 143 -192 32 -32 63 -58 68 -58 6
0 10 -4 10 -8 0 -4 26 -23 58 -42 31 -19 60 -38 63 -43 3 -5 9 -8 13 -8 3 0
32 -11 63 -25 88 -38 187 -66 333 -91 56 -10 5729 -13 5785 -3 46 8 106 19
130 24 27 6 121 40 131 47 6 5 14 6 17 2 4 -3 7 -1 7 5 0 6 9 13 20 17 34 11
123 76 172 126 95 98 165 224 203 369 10 38 29 131 31 150 1 14 5 48 8 75 7
61 8 778 1 855 -11 127 -15 156 -20 180 -3 14 -7 42 -10 64 -3 21 -12 68 -21
105 -8 36 -17 74 -19 84 -2 10 -7 27 -10 37 -3 10 -8 29 -10 42 -4 19 -32 110
-53 168 -3 8 -6 17 -7 20 -10 41 -162 389 -174 400 -3 3 -24 40 -45 83 -61
120 -218 365 -321 502 -22 29 -49 65 -59 80 -11 14 -27 34 -35 44 -9 10 -27
33 -41 51 -14 18 -32 41 -40 50 -8 10 -33 39 -55 66 -44 52 -47 56 -155 174
-92 102 -313 322 -422 421 -117 107 -125 113 -218 192 -47 40 -90 77 -96 83
-24 22 -180 146 -244 194 -19 14 -42 33 -52 42 -10 10 -21 18 -24 18 -4 0 -34
21 -89 63 -5 4 -26 20 -46 35 -49 37 -243 170 -363 248 -55 35 -102 66 -104
69 -2 2 31 26 74 54 44 28 84 54 90 59 5 5 21 15 35 22 13 7 26 16 29 19 3 4
19 15 35 25 46 29 332 234 405 290 36 28 70 54 75 59 6 4 20 15 32 25 12 9 32
25 45 35 20 15 211 173 249 206 8 6 23 19 35 29 176 144 587 556 755 757 19
22 39 45 44 51 6 6 21 26 35 44 14 19 36 47 50 64 14 17 29 37 35 44 5 7 18
22 28 33 9 10 17 23 17 28 0 5 3 11 8 13 9 4 47 57 120 168 31 47 60 87 64 88
4 2 8 8 8 12 0 5 25 50 56 101 93 153 208 385 259 524 14 39 29 77 32 85 3 8
7 17 8 20 0 3 11 34 22 70 18 54 34 107 49 165 1 6 7 30 12 55 6 25 13 55 15
66 6 22 11 55 23 139 3 28 8 59 10 70 24 133 22 921 -2 1027 -3 13 -10 45 -16
73 -5 27 -16 62 -24 77 -8 15 -15 35 -17 45 -4 25 -50 111 -88 168 -34 51
-141 165 -155 165 -4 0 -19 11 -33 24 -51 47 -216 124 -341 157 -58 16 -58 16
-105 23 -23 4 -52 10 -65 13 -14 4 -1312 8 -2885 9 -2420 2 -2872 0 -2938 -12z
m5809 -853 c13 -1 8 -846 -5 -846 -1 0 -4 -16 -6 -35 -5 -45 -15 -102 -19
-109 -2 -3 -7 -22 -10 -41 -6 -40 -69 -237 -93 -289 -78 -176 -234 -467 -262
-491 -3 -3 -19 -25 -36 -50 -75 -113 -197 -269 -348 -445 -59 -69 -429 -440
-498 -500 -26 -22 -72 -62 -104 -90 -32 -27 -63 -55 -69 -60 -24 -23 -238
-196 -341 -276 -155 -121 -375 -277 -486 -345 -52 -32 -100 -64 -107 -71 -7
-7 -18 -13 -23 -13 -5 0 -15 -5 -22 -10 -15 -13 -227 -147 -247 -157 -8 -4
-41 -24 -74 -45 -32 -21 -64 -35 -70 -31 -6 4 -22 14 -36 24 -14 9 -86 54
-160 99 -74 46 -142 89 -151 97 -9 7 -18 11 -21 8 -3 -3 -13 4 -23 15 -10 11
-24 20 -32 20 -7 0 -13 3 -13 8 0 4 -9 12 -19 17 -68 35 -413 270 -419 287 -2
4 -10 8 -17 8 -7 0 -15 3 -17 8 -1 4 -30 27 -63 52 -33 25 -62 47 -65 50 -3 3
-23 18 -45 34 -22 17 -49 38 -60 47 -11 10 -63 53 -115 96 -52 42 -106 87
-120 100 -14 12 -36 31 -50 43 -87 74 -217 197 -360 341 -194 196 -201 204
-311 334 -46 55 -86 102 -89 105 -23 21 -250 343 -250 355 0 3 -5 11 -10 18
-26 31 -58 86 -52 91 3 3 0 6 -6 6 -7 0 -12 4 -12 9 0 4 -17 39 -38 77 -38 70
-76 153 -132 289 -15 36 -34 100 -32 108 1 4 -2 7 -6 7 -4 0 -9 8 -10 18 -2
21 -7 43 -15 62 -7 18 -25 103 -32 150 -3 19 -8 48 -11 64 -3 15 -8 66 -9 113
-2 47 -6 87 -9 90 -2 3 -1 16 4 29 5 13 6 26 0 29 -5 3 -5 18 0 35 5 17 6 30
2 30 -8 0 -8 52 0 66 3 5 2 18 -2 29 -4 11 -4 30 1 41 4 12 5 24 2 27 -7 7
-10 77 -3 77 3 0 4 17 3 37 -1 21 -2 38 -3 38 -1 0 -2 15 -3 33 -1 17 1 32 5
32 4 0 3 14 -2 30 -5 19 -5 30 1 30 6 0 7 5 3 12 -12 19 -11 60 1 72 8 8 770
11 2811 9 1539 0 2804 -2 2810 -2z m-2758 -4811 c40 -25 102 -63 137 -85 36
-22 97 -60 137 -84 40 -24 75 -47 78 -50 3 -3 14 -11 25 -18 109 -65 352 -229
400 -270 6 -5 31 -23 57 -41 25 -18 52 -38 60 -45 7 -7 29 -24 48 -37 19 -13
37 -27 40 -30 3 -3 25 -21 50 -40 25 -19 47 -37 50 -40 3 -3 49 -40 103 -83
53 -44 97 -83 97 -88 0 -5 4 -8 8 -7 5 2 22 -10 39 -27 17 -16 55 -50 84 -75
152 -129 426 -404 559 -560 25 -29 50 -58 56 -64 9 -10 149 -186 190 -241 225
-295 411 -682 473 -981 31 -153 35 -207 35 -614 l1 -375 -2812 -1 -2813 0 0
35 c-2 193 2 686 5 721 7 79 16 154 21 161 2 4 6 22 8 40 9 71 64 260 96 334
9 19 51 113 100 223 13 28 27 52 32 52 4 0 8 5 8 12 0 22 138 242 246 393 32
45 106 138 163 205 11 14 38 45 58 70 162 191 511 535 716 703 21 18 53 45 70
60 18 15 41 36 52 45 11 10 70 56 130 102 61 46 112 87 115 90 3 3 48 36 100
74 52 38 111 81 130 96 53 40 296 198 325 212 14 6 25 15 25 20 0 4 7 8 15 8
8 0 15 5 15 10 0 6 4 10 9 10 5 0 67 36 138 81 70 44 137 86 148 92 11 7 35
22 55 35 19 12 37 21 40 20 3 -2 38 -23 78 -48z"/>
<path d="M4020 7559 c0 -4 6 -12 13 -16 7 -4 20 -19 29 -33 16 -26 27 -39 106
-129 64 -74 186 -196 252 -253 30 -25 69 -58 85 -73 17 -14 55 -45 85 -68 30
-23 57 -44 60 -47 17 -18 236 -176 410 -295 63 -44 121 -85 128 -92 7 -7 18
-13 24 -13 8 0 204 129 235 155 6 6 34 26 62 45 69 47 221 158 246 178 11 9
47 37 80 62 33 25 65 50 71 55 6 6 32 28 59 50 75 61 304 292 360 363 28 35
58 73 68 84 9 12 17 24 17 28 0 3 -538 6 -1195 6 -657 1 -1195 -3 -1195 -7z"/>
<path d="M3894 2682 c-64 -64 -128 -132 -142 -152 -15 -19 -36 -44 -47 -55
-11 -11 -33 -38 -49 -60 -17 -22 -33 -42 -36 -45 -4 -3 -15 -20 -25 -37 -11
-18 -22 -33 -26 -33 -4 0 -12 -13 -19 -30 -7 -16 -16 -30 -21 -30 -4 0 -11 -9
-14 -20 -3 -11 -12 -26 -18 -32 -16 -17 -107 -178 -107 -189 0 -5 -4 -9 -10
-9 -5 0 -10 -4 -10 -9 0 -5 -25 -61 -55 -125 -30 -64 -55 -122 -55 -129 0 -10
383 -12 1955 -12 1431 0 1955 2 1955 11 0 15 -84 199 -99 218 -8 9 -11 16 -7
16 3 0 -15 34 -39 76 -25 42 -45 80 -45 85 0 5 -4 9 -10 9 -5 0 -10 6 -10 13
0 12 -129 202 -185 271 -82 103 -169 199 -258 287 l-98 96 -1205 0 -1204 1
-116 -116z"/>
</g>
</svg>
